# xmcd
#
# Track frame offsets: 
#        150
#        13974
#        30167
#        46670
#        63940
#        79288
#        96425
#        113734
#        130143
#        147941
#        165644
#
# Disc length: 2474 seconds
#
# Revision: 0
# Processed by: cddbd v1.5.2PL0 Copyright (c) Steve Scherf et al.
# Submitted via: ExactAudioCopyFreeDBPlugin 1.0
#
DISCID=8909a80b
DTITLE=Diana Ross - Icon
DYEAR=1900
DGENRE=R&B
TTITLE0=Reach Out and Touch (Somebody's Hand)
TTITLE1=Ain't No Mountain High Enough
TTITLE2=Remember Me
TTITLE3=Touch Me In The Morning
TTITLE4=Theme From Mahogany (Do You Know Where You're Going To)
TTITLE5=Love Hangover
TTITLE6=The Boss
TTITLE7=Upside Down
TTITLE8=I'm Coming Out
TTITLE9=It's My Turn
TTITLE10=Endless Love ft. Lionel Richie
EXTD=
EXTT0=
EXTT1=
EXTT2=
EXTT3=
EXTT4=
EXTT5=
EXTT6=
EXTT7=
EXTT8=
EXTT9=
EXTT10=
PLAYORDER=
